PathFileType	4	(X/Y/Z)	/Users/niels/Desktop/University/Third Semester/Perception and Action/Exam/Gymnastics Motion Tracking/Code for Gym Tracking/Scripts/Analyzed Data/Start Salto/st_salto_good_id17_1_Sports2D/st_salto_good_id17_1_Sports2D_px_person00.trc
DataRate	CameraRate	NumFrames	NumMarkers	Units	OrigDataRate	OrigDataStartFrame	OrigNumFrames
29.75	29.75	8	22	m	29.75	0	120
Frame#	Time	Hip			RHip			RKnee			RAnkle			RBigToe			RSmallToe			RHeel			LHip			LKnee			LAnkle			LBigToe			LSmallToe			LHeel			Neck			Head			Nose			RShoulder			RElbow			RWrist			LShoulder			LElbow			LWrist		
		X1	Y1	Z1	X2	Y2	Z2	X3	Y3	Z3	X4	Y4	Z4	X5	Y5	Z5	X6	Y6	Z6	X7	Y7	Z7	X8	Y8	Z8	X9	Y9	Z9	X10	Y10	Z10	X11	Y11	Z11	X12	Y12	Z12	X13	Y13	Z13	X14	Y14	Z14	X15	Y15	Z15	X16	Y16	Z16	X17	Y17	Z17	X18	Y18	Z18	X19	Y19	Z19	X20	Y20	Z20	X21	Y21	Z21	X22	Y22	Z22
0	0.0	-0.19710933590616395	-0.4534224215485116	0.0	-0.06691312423255547	-0.5038795143751714	0.0	-0.40012358939060333	-0.6063959364400375	0.0	-0.5391269025066974	-0.6626683898353145	0.0	-0.5481847576944192	-0.7331631018030973	0.0	-0.5973495259525219	-0.7080087349023497	0.0	-0.563108699429295	-0.6432973443408052	0.0	-0.213752286314709	-0.43819441407307663	0.0	-0.07864371207858131	0.13730731946752583	0.0	0.23700630199183415	-0.7031750450480245	0.0	0.10237204144992754	-0.6623051055813867	0.0	0.1030878338861373	-0.6285236446178138	0.0	0.1402656717331972	-0.9634595479916707	0.0	-0.44311745077946485	-0.4065121364042736	0.0	-0.48894907560838813	-0.34942465948037926	0.0	-0.5545234516817228	-0.35710638463958466	0.0	-0.1102605594090387	-0.5270284682502074	0.0	0.6251988476688908	-0.8016743924566716	0.0	1.1382832845445388	-0.7342542191619073	0.0	-0.5364384992817101	-0.38594654333100276	0.0	-0.41080213912319463	-0.4353969306617767	0.0	-0.3858440793463805	-0.22380413738549193	0.0
1	0.03361344537815126	-0.17083105809587035	-0.46259354709016	0.0	-0.058019872721416746	-0.5067665363189704	0.0	-0.33395199665615094	-0.5975629987697191	0.0	-0.45884912979073217	-0.6611749011286501	0.0	-0.4603653167841328	-0.727121382426392	0.0	-0.5042843217196831	-0.7056492394703252	0.0	-0.48132596878351147	-0.6463892501993864	0.0	-0.18397376540659344	-0.45097045810120967	0.0	-0.060818845762650925	0.03601347142978721	0.0	0.20400270446694668	-0.6955359135371993	0.0	0.09627514181517913	-0.6670029841999309	0.0	0.0971080839888301	-0.6368822061165291	0.0	0.11891109421412374	-0.9195107802599242	0.0	-0.3806030787492665	-0.40268635732092367	0.0	-0.41720611767209703	-0.3435772797854609	0.0	-0.47173194208791064	-0.3564041277974095	0.0	-0.09577104338912859	-0.5081986186621885	0.0	0.5449101230460698	-0.7485464932350121	0.0	0.9950724943118625	-0.6884214891365854	0.0	-0.45703767667089695	-0.3889562373044967	0.0	-0.33919533053734535	-0.43616381299330115	0.0	-0.3072309216861153	-0.25176854036849006	0.0
2	0.06722689075630252	-0.14486507501671986	-0.47177228578882124	0.0	-0.04953653924156871	-0.5096134763873564	0.0	-0.2678625549768242	-0.5885557472362509	0.0	-0.3786731652386794	-0.6595710184201732	0.0	-0.37260478950475096	-0.7209870455961275	0.0	-0.41127665314761797	-0.7032131565876976	0.0	-0.39965460597164304	-0.649388857182816	0.0	-0.15449071436088316	-0.46379120432751336	0.0	-0.043360222798614394	-0.06586646404462643	0.0	0.17004255039899638	-0.6877459763831508	0.0	0.08906449224904713	-0.671710876038073	0.0	0.09003432078059632	-0.6452817535830998	0.0	0.09662106773591161	-0.8751618124762832	0.0	-0.31823155651115886	-0.39878789265306935	0.0	-0.3455587697209616	-0.33763799808492195	0.0	-0.3889846566459585	-0.35563775608750925	0.0	-0.08170496643372725	-0.48922005419603626	0.0	0.46350858357636976	-0.6951709703019153	0.0	0.8501769093713961	-0.6425094032610453	0.0	-0.37767436594041814	-0.3919384479542588	0.0	-0.2676572973291962	-0.436896560768994	0.0	-0.228645009774185	-0.2798753950480064	0.0
3	0.10084033613445378	-0.11910651873098109	-0.4809473724056568	0.0	-0.04137562426366762	-0.5123966430381448	0.0	-0.20166360564254468	-0.5793339897390574	0.0	-0.2983748480473572	-0.6578310871140505	0.0	-0.2846706359255638	-0.7147525618564007	0.0	-0.31809918011704724	-0.7006896232935346	0.0	-0.3178687199406723	-0.6522800052375114	0.0	-0.12519932251353366	-0.4766202052525218	0.0	-0.02597081255735995	-0.16815035901361175	0.0	0.13526270363908824	-0.6797901236946915	0.0	0.0806354521012633	-0.6764469058587005	0.0	0.08175028886234775	-0.6537457243330025	0.0	0.07347842363505218	-0.83045467139322	0.0	-0.25577382286511086	-0.39481507797859294	0.0	-0.27373878947072816	-0.3315964225612547	0.0	-0.30605270335566087	-0.3548046021462223	0.0	-0.06786030910990176	-0.47005940381157024	0.0	0.38099069537889213	-0.6415847807477736	0.0	0.7034278741744726	-0.5967011669114732	0.0	-0.2981530689960086	-0.39488812508719573	0.0	-0.19600280280916066	-0.43765810313661313	0.0	-0.14991648576544978	-0.30831767570817525	0.0
4	0.13445378151260504	-0.09322146927179872	-0.4900249117532006	0.0	-0.0330640155207333	-0.5150677075062517	0.0	-0.1352565697017089	-0.5700028093447906	0.0	-0.21783993473867388	-0.6560057071415546	0.0	-0.19649776173200717	-0.7085158354265764	0.0	-0.2247431808428085	-0.6981363786433694	0.0	-0.23585272379727654	-0.6550931707080138	0.0	-0.09579834972372266	-0.48925748343777864	0.0	-0.0077717043926615005	-0.26935645034917394	0.0	0.10094593006575357	-0.6718066396245107	0.0	0.07155237214176641	-0.6812161411943677	0.0	0.0727865634967654	-0.6622525818823629	0.0	0.050546201766021884	-0.786080467529885	0.0	-0.19296422213729306	-0.3908534863119971	0.0	-0.20147744292598121	-0.3255423569127467	0.0	-0.2228771946329767	-0.3539553802587894	0.0	-0.05350939280653567	-0.4508785229392315	0.0	0.2987070935023012	-0.5884081580679259	0.0	0.5565892148446459	-0.5517972838635814	0.0	-0.21847239613132421	-0.3977998738689829	0.0	-0.12417117494884665	-0.438605685587285	0.0	-0.07109533820953187	-0.33723097925652246	0.0
5	0.1680672268907563	-0.06648713167589271	-0.49879667286269846	0.0	-0.023494471718632774	-0.5175594251646636	0.0	-0.06868234415354799	-0.5609277266906362	0.0	-0.13711369633176274	-0.6542916211492397	0.0	-0.10827049383077814	-0.7025495135904918	0.0	-0.13152156913742363	-0.6957322140944899	0.0	-0.1536487611537399	-0.6579573698566435	0.0	-0.06564447331881526	-0.5012729305971869	0.0	0.012967302739037845	-0.36609411970984485	0.0	0.07020433675311111	-0.6641936717775836	0.0	0.06362020910618807	-0.685999309884551	0.0	0.06488289025397206	-0.6707046931146291	0.0	0.030492973308356968	-0.7437311786945767	0.0	-0.1294856789879532	-0.3871323829639719	0.0	-0.1285239010403991	-0.3197336108112153	0.0	-0.13966056755818446	-0.3532341217283136	0.0	-0.03711357973377512	-0.4321586844501177	0.0	0.22019030826477107	-0.537128417907593	0.0	0.4145889352437173	-0.5094379966885363	0.0	-0.13891965633160785	-0.40067798386231573	0.0	-0.052281293856690274	-0.4400206307122602	0.0	0.007449483172356839	-0.3665852444922102	0.0
6	0.20168067226890757	-0.0376886136974198	-0.5069356693668575	0.0	-0.01075960206116461	-0.5198127957376	0.0	-0.0021920978861390585	-0.5528461947374331	0.0	-0.05647817627673236	-0.65310378560127	0.0	-0.020524663238051816	-0.6973552824055204	0.0	-0.039175034810370865	-0.6938239892557629	0.0	-0.07153080665253632	-0.661157126262347	0.0	-0.03365712675061018	-0.5119938131373974	0.0	0.03887924035738523	-0.4528130863499881	0.0	0.04841982645869221	-0.6576976585011759	0.0	0.06046209021017225	-0.690737807674059	0.0	0.06156377107132136	-0.6788963521120398	0.0	0.018039473501289306	-0.7063044567214262	0.0	-0.06502146426979748	-0.38406652997572327	0.0	-0.054739898694437	-0.31465119805105946	0.0	-0.05697781442534454	-0.3529127151645865	0.0	-0.0161987709657904	-0.41480017065913394	0.0	0.15174876776753227	-0.49023506974783043	0.0	0.2864876956885306	-0.47209218167188344	0.0	-0.06016809772714208	-0.40355229327800185	0.0	0.019298014051044022	-0.44229434677000207	0.0	0.08494274389871667	-0.39600800787930374	0.0
7	0.23529411764705882	-0.005208881716419193	-0.5140561403173556	0.0	0.007721740651087664	-0.521835126866088	0.0	0.06367098834096833	-0.5469011292763803	0.0	0.02345768780387947	-0.6531085710552829	0.0	0.06577171530009542	-0.6936502756017522	0.0	0.05108323927445543	-0.6929325346421101	0.0	0.009908526294750322	-0.6651667247439813	0.0	0.0016053194215002603	-0.5206233416387127	0.0	0.07302394980015414	-0.5225311131620624	0.0	0.04285386295479634	-0.6534056973684823	0.0	0.06773356703005473	-0.6953197168532232	0.0	0.06836971150414085	-0.6865009893640747	0.0	0.01971651887225076	-0.67764499282058	0.0	0.0005750921465883948	-0.3822392195321475	0.0	0.0196934539729069	-0.3109915865044056	0.0	0.02413788760408075	-0.3533916038920321	0.0	0.01232595800620554	-0.4001036048243846	0.0	0.10215168430942534	-0.4509320108663813	0.0	0.18522954837279407	-0.44252439745596783	0.0	0.016682447690236555	-0.4064977329706255	0.0	0.08988934888494346	-0.4458222026237972	0.0	0.160200162227044	-0.42456008322177347	0.0
